<svg width="320" height="100" viewBox="0 0 320 100" fill="none" xmlns="http://www.w3.org/2000/svg">
<path d="M65 20H25V40H65V60H25V100H5V20C5 9.53674e-06 25 0 25 0H65V20ZM105 80C105 100 85 100 85 100H45V80H85V0H105V80ZM215 0C224.972 0 225 9.94463 225 10.001V90.001C225 90.001 225 100 215 100H135C125 100 125 90.001 125 90.001V10.001C125 9.94463 125.028 0 135 0H215ZM285 0C325 0 325 60 285 60H290L320 100H295L265 60V100H245V0H285ZM175 10.001C152.909 10.001 135 27.9097 135 50.001C135 72.0924 152.909 90.001 175 90.001C197.091 90.001 215 72.0924 215 50.001C215 27.9097 197.091 10.001 175 10.001ZM265 40.001H285C290.523 40.001 295 35.5238 295 30.001C295 24.4782 290.523 20.001 285 20.001H265V40.001Z" fill="black"/>
</svg>
